<?xml version="1.0" ?><!DOCTYPE svg  PUBLIC '-//W3C//DTD SVG 1.1//EN'  'http://www.w3.org/Graphics/SVG/1.1/DTD/svg11.dtd'><svg width="2.33333px" height="2.33333px" viewBox="0 0 2.33333 2.33333" style="shape-rendering:geometricPrecision; text-rendering:geometricPrecision; image-rendering:optimizeQuality; fill-rule:evenodd; clip-rule:evenodd" xml:space="preserve" xmlns="http://www.w3.org/2000/svg" xmlns:xlink="http://www.w3.org/1999/xlink"><defs><style type="text/css">
   <![CDATA[
    .fil0 {fill:#ffffff}
   ]]>
  </style></defs><g id="Layer_x0020_1"><path class="fil0" d="M1.97556 1.51244l-0.995673 0c-0.0236063,0 -0.0430472,-0.0194409 -0.0430472,-0.0430472l0 -0.604071c0,-0.0236063 0.0194409,-0.044437 0.0430472,-0.044437l0.995673 0c0.0236063,0 0.0444331,0.0208346 0.0444331,0.044437l0 0.605457c3.93701e-006,0.0222205 -0.019437,0.0416614 -0.0444331,0.0416614zm-0.995673 -0.651283c-0.00138583,0 -0.00277559,0.00138583 -0.00277559,0.00416535l0 0.605457c0,0.00138976 0.00138976,0.00277559 0.00277559,0.00277559l0.995673 3.93701e-006c0.00138583,0 0.00416535,-0.00138583 0.00416535,-0.00277559l0 -0.605461c0,-0.00138583 -0.00138583,-0.00416535 -0.00416535,-0.00416535l-0.995673 0z"/><path class="fil0" d="M1.47842 1.31247c-0.0125,0 -0.0236102,-0.00416929 -0.0319409,-0.0125l-0.494362 -0.426319c-0.0289646,-0.022752 0.00487795,-0.0531693 0.0236063,-0.031937l0.495752 0.429094c0.00277559,0.00277559 0.00833071,0.00277559 0.0111102,0l0.495752 -0.429094 0.00277559 -0.00416535c0.0196339,-0.0196339 0.0511811,0.0115512 0.0208307,0.0347165l-0.492976 0.429098c-0.00833071,0.00694094 -0.0194409,0.0111063 -0.0305472,0.0111063zm-0.498535 -0.45826l0 0z"/><path class="fil0" d="M1.99083 1.50828c-0.00416535,0 -0.00972047,-0.00138583 -0.0124961,-0.00555512l-0.36522 -0.315228c-0.00833071,-0.00694094 -0.00972047,-0.0194409 -0.00138976,-0.0277756 0.00694488,-0.00833071 0.0194409,-0.00972047 0.0277756,-0.00138583l0.363827 0.315224c0.00833071,0.00694488 0.00972441,0.0194409 0.00138976,0.0277756 -0.00277559,0.00416535 -0.00833071,0.00694488 -0.0138858,0.00694488zm-1.02622 -0.00138976c-0.00555512,0 -0.0111102,-0.00277559 -0.0152756,-0.00694488 -0.00694488,-0.00833071 -0.00694488,-0.0208307 0.00138583,-0.0277717l0.362441 -0.313839c0.00833071,-0.00694488 0.0208307,-0.00694488 0.0277756,0.00138583 0.00694094,0.00833071 0.00694094,0.0208346 -0.00138976,0.0277756l-0.361051 0.313839c-0.00416535,0.00416535 -0.00833071,0.00555512 -0.0138858,0.00555512z"/><path class="fil0" d="M1.72977 1.42635l-0.504087 0c-0.0257717,0 -0.0257717,-0.0388819 0,-0.0388819l0.504087 -3.93701e-006c0.0257756,0 0.0257677,0.0388858 0,0.0388858z"/><path class="fil0" d="M0.846579 0.970862l-0.416598 0c-0.0257717,0 -0.0257717,-0.0388819 0,-0.0388819l0.416598 0c0.0257756,0 0.0257677,0.0388819 0,0.0388819z"/><path class="fil0" d="M0.836854 1.18611l-0.504083 0c-0.0257717,0 -0.0257717,-0.0388819 0,-0.0388819l0.504083 0c0.0250354,0 0.0272126,0.0388819 0,0.0388819z"/><path class="fil0" d="M0.839634 1.40413l-0.416598 0c-0.0257717,0 -0.0257717,-0.0388819 0,-0.0388819l0.416598 -3.93701e-006c0.0257756,0 0.0257717,0.0388858 0,0.0388858z"/><path class="fil0" d="M1.89919 1.32636c-0.0111102,0 -0.0194409,-0.00833071 -0.0194409,-0.0194409l-3.93701e-006 -0.279126c0,-0.0257717 0.0388819,-0.0257717 0.0388819,0l0 0.279122c3.93701e-006,0.0111102 -0.00833071,0.0194449 -0.019437,0.0194449zm-0.841531 0c-0.0111063,0 -0.019437,-0.00833071 -0.019437,-0.0194409l-3.93701e-006 -0.279126c0,-0.0257717 0.0388819,-0.0257717 0.0388819,0l0 0.279122c0.00138976,0.0111102 -0.00833071,0.0194449 -0.0194409,0.0194449z"/></g></svg>